<?xml version="1.0" standalone="no"?>
<!DOCTYPE svg PUBLIC "-//W3C//DTD SVG 1.1//EN"
"http://www.w3.org/Graphics/SVG/1.1/DTD/svg11.dtd">

<svg width="954" height="1187" view_box="0 0 954 1187"
xmlns="http://www.w3.org/2000/svg"
xmlns:link="http://www.w3.org/1999/xlink">\n\n<desc>Généré par Mocodo 2.3.7 le Thu, 15 Mar 2018 17:08:31</desc>

<rect id="frame" x="0" y="0" width="954" height="1187" fill="#f7f7f7" stroke="none" stroke-width="0"/>

<!-- Association Inclut -->
<line x1="566" y1="968" x2="755" y2="968" stroke="#d6604d" stroke-width="2"/>
<text x="621" y="985.0" fill="#2166ac" font-family="Verdana" font-size="12">1,N</text>
<line x1="891" y1="607" x2="755" y2="968" stroke="#d6604d" stroke-width="2"/>
<text x="863.839878576" y="675" fill="#2166ac" font-family="Verdana" font-size="12">0,N</text>
<g id="association-Inclut">
	<path d="M 774 943 a 14 14 90 0 1 14 14 V 968 h -66 V 957 a 14 14 90 0 1 14 -14" fill="#f4a582" stroke="#f4a582" stroke-width="0"/>
	<path d="M 788 968.0 v 11 a 14 14 90 0 1 -14 14 H 736 a 14 14 90 0 1 -14 -14 V 968.0 H 66" fill="#fddbc7" stroke="#fddbc7" stroke-width="0"/>
	<rect x="722" y="943" width="66" height="50" fill="none" rx="14" stroke="#d6604d" stroke-width="2"/>
	<line x1="722" y1="968" x2="788" y2="968" stroke="#d6604d" stroke-width="1"/>
	<text x="737" y="960.7" fill="#000000" font-family="Verdana" font-size="12">Inclut</text>
	<text x="729" y="985.8" fill="#000000" font-family="Verdana" font-size="12">quantite</text>
</g>

<!-- Association Regroupe -->
<line x1="891" y1="607" x2="755" y2="607" stroke="#d6604d" stroke-width="2"/>
<text x="812" y="624.0" fill="#2166ac" font-family="Verdana" font-size="12">0,N</text>
<line x1="566" y1="607" x2="755" y2="607" stroke="#d6604d" stroke-width="2"/>
<text x="610" y="624.0" fill="#2166ac" font-family="Verdana" font-size="12">1,N</text>
<g id="association-Regroupe">
	<path d="M 793 582 a 14 14 90 0 1 14 14 V 607 h -104 V 596 a 14 14 90 0 1 14 -14" fill="#f4a582" stroke="#f4a582" stroke-width="0"/>
	<path d="M 807 607.0 v 11 a 14 14 90 0 1 -14 14 H 717 a 14 14 90 0 1 -14 -14 V 607.0 H 104" fill="#fddbc7" stroke="#fddbc7" stroke-width="0"/>
	<rect x="703" y="582" width="104" height="50" fill="none" rx="14" stroke="#d6604d" stroke-width="2"/>
	<line x1="703" y1="607" x2="807" y2="607" stroke="#d6604d" stroke-width="1"/>
	<text x="725" y="599.7" fill="#000000" font-family="Verdana" font-size="12">Regroupe</text>
	<text x="710" y="624.8" fill="#000000" font-family="Verdana" font-size="12">qte_regroupee</text>
</g>

<!-- Association SeComposeDe -->
<line x1="232" y1="968" x2="390" y2="968" stroke="#d6604d" stroke-width="2"/>
<text x="312" y="985.0" fill="#2166ac" font-family="Verdana" font-size="12">1,N</text>
<line x1="566" y1="968" x2="390" y2="968" stroke="#d6604d" stroke-width="2"/>
<text x="490" y="985.0" fill="#2166ac" font-family="Verdana" font-size="12">1,1</text>
<g id="association-SeComposeDe">
	<path d="M 427 926 a 14 14 90 0 1 14 14 V 951 h -102 V 940 a 14 14 90 0 1 14 -14" fill="#f4a582" stroke="#f4a582" stroke-width="0"/>
	<path d="M 441 951.0 v 45 a 14 14 90 0 1 -14 14 H 353 a 14 14 90 0 1 -14 -14 V 951.0 H 102" fill="#fddbc7" stroke="#fddbc7" stroke-width="0"/>
	<rect x="339" y="926" width="102" height="84" fill="none" rx="14" stroke="#d6604d" stroke-width="2"/>
	<line x1="339" y1="951" x2="441" y2="951" stroke="#d6604d" stroke-width="1"/>
	<text x="346" y="943.7" fill="#000000" font-family="Verdana" font-size="12">SeComposeDe</text>
	<text x="346" y="968.8" fill="#000000" font-family="Verdana" font-size="12">date_achat</text>
	<text x="346" y="985.8" fill="#000000" font-family="Verdana" font-size="12">qté_totale</text>
	<text x="346" y="1002.8" fill="#000000" font-family="Verdana" font-size="12">prix_total</text>
</g>

<!-- Association Valide -->
<line x1="390" y1="330" x2="390" y2="607" stroke="#d6604d" stroke-width="2"/>
<text x="363.0" y="432" fill="#2166ac" font-family="Verdana" font-size="12">1,N</text>
<line x1="566" y1="968" x2="390" y2="607" stroke="#d6604d" stroke-width="2"/>
<text x="534.997796809" y="935" fill="#2166ac" font-family="Verdana" font-size="12">1,1</text>
<g id="association-Valide">
	<path d="M 402 582 a 14 14 90 0 1 14 14 V 607 h -52 V 596 a 14 14 90 0 1 14 -14" fill="#f4a582" stroke="#f4a582" stroke-width="0"/>
	<path d="M 416 607.0 v 11 a 14 14 90 0 1 -14 14 H 378 a 14 14 90 0 1 -14 -14 V 607.0 H 52" fill="#fddbc7" stroke="#fddbc7" stroke-width="0"/>
	<rect x="364" y="582" width="52" height="50" fill="none" rx="14" stroke="#d6604d" stroke-width="2"/>
	<line x1="364" y1="607" x2="416" y2="607" stroke="#d6604d" stroke-width="1"/>
	<text x="371" y="599.7" fill="#000000" font-family="Verdana" font-size="12">Valide</text>
</g>

<!-- Association Utilise -->
<line x1="232" y1="968" x2="390" y2="826" stroke="#d6604d" stroke-width="2"/>
<text x="249.355330087" y="935" fill="#2166ac" font-family="Verdana" font-size="12">1,N</text>
<line x1="370" y1="742" x2="390" y2="826" stroke="#d6604d" stroke-width="2"/>
<text x="352.9253141" y="793" fill="#2166ac" font-family="Verdana" font-size="12">0,N</text>
<g id="association-Utilise">
	<path d="M 402 801 a 14 14 90 0 1 14 14 V 826 h -52 V 815 a 14 14 90 0 1 14 -14" fill="#f4a582" stroke="#f4a582" stroke-width="0"/>
	<path d="M 416 826.0 v 11 a 14 14 90 0 1 -14 14 H 378 a 14 14 90 0 1 -14 -14 V 826.0 H 52" fill="#fddbc7" stroke="#fddbc7" stroke-width="0"/>
	<rect x="364" y="801" width="52" height="50" fill="none" rx="14" stroke="#d6604d" stroke-width="2"/>
	<line x1="364" y1="826" x2="416" y2="826" stroke="#d6604d" stroke-width="1"/>
	<text x="371" y="818.7" fill="#000000" font-family="Verdana" font-size="12">Utilise</text>
</g>

<!-- Association Communique -->
<line x1="75" y1="330" x2="232" y2="330" stroke="#d6604d" stroke-width="2"/>
<text x="134" y="347.0" fill="#2166ac" font-family="Verdana" font-size="12">0,N</text>
<line x1="390" y1="330" x2="232" y2="330" stroke="#d6604d" stroke-width="2"/>
<text x="309" y="347.0" fill="#2166ac" font-family="Verdana" font-size="12">0,N</text>
<g id="association-Communique">
	<path d="M 289 296 a 14 14 90 0 1 14 14 V 321 h -142 V 310 a 14 14 90 0 1 14 -14" fill="#f4a582" stroke="#f4a582" stroke-width="0"/>
	<path d="M 303 321.0 v 29 a 14 14 90 0 1 -14 14 H 175 a 14 14 90 0 1 -14 -14 V 321.0 H 142" fill="#fddbc7" stroke="#fddbc7" stroke-width="0"/>
	<rect x="161" y="296" width="142" height="68" fill="none" rx="14" stroke="#d6604d" stroke-width="2"/>
	<line x1="161" y1="321" x2="303" y2="321" stroke="#d6604d" stroke-width="1"/>
	<text x="191" y="313.7" fill="#000000" font-family="Verdana" font-size="12">Communique</text>
	<text x="168" y="338.8" fill="#000000" font-family="Verdana" font-size="12">date_communication</text>
	<text x="168" y="355.8" fill="#000000" font-family="Verdana" font-size="12">contenu</text>
</g>

<!-- Association PROPOSE -->
<line x1="390" y1="330" x2="566" y2="515" stroke="#d6604d" stroke-width="2"/>
<text x="449" y="390.583135989" fill="#2166ac" font-family="Verdana" font-size="12">0,N</text>
<line x1="566" y1="607" x2="566" y2="515" stroke="#d6604d" stroke-width="2"/>
<text x="571.0" y="557" fill="#2166ac" font-family="Verdana" font-size="12">1,1</text>
<g id="association-PROPOSE">
	<path d="M 601 490 a 14 14 90 0 1 14 14 V 515 h -98 V 504 a 14 14 90 0 1 14 -14" fill="#f4a582" stroke="#f4a582" stroke-width="0"/>
	<path d="M 615 515.0 v 11 a 14 14 90 0 1 -14 14 H 531 a 14 14 90 0 1 -14 -14 V 515.0 H 98" fill="#fddbc7" stroke="#fddbc7" stroke-width="0"/>
	<rect x="517" y="490" width="98" height="50" fill="none" rx="14" stroke="#d6604d" stroke-width="2"/>
	<line x1="517" y1="515" x2="615" y2="515" stroke="#d6604d" stroke-width="1"/>
	<text x="536" y="507.7" fill="#000000" font-family="Verdana" font-size="12">PROPOSE</text>
	<text x="524" y="532.8" fill="#000000" font-family="Verdana" font-size="12">date_creation</text>
</g>

<!-- Association Stocke -->
<line x1="390" y1="330" x2="566" y2="440" stroke="#d6604d" stroke-width="2"/>
<text x="449" y="365.572426497" fill="#2166ac" font-family="Verdana" font-size="12">1,N</text>
<line x1="891" y1="607" x2="566" y2="440" stroke="#d6604d" stroke-width="2"/>
<text x="813" y="593.266556708" fill="#2166ac" font-family="Verdana" font-size="12">1,1</text>
<line x1="755" y1="330" x2="566" y2="440" stroke="#d6604d" stroke-width="2"/>
<text x="687" y="350.960987413" fill="#2166ac" font-family="Verdana" font-size="12">1,1</text>
<g id="association-Stocke">
	<path d="M 580 415 a 14 14 90 0 1 14 14 V 440 h -56 V 429 a 14 14 90 0 1 14 -14" fill="#f4a582" stroke="#f4a582" stroke-width="0"/>
	<path d="M 594 440.0 v 11 a 14 14 90 0 1 -14 14 H 552 a 14 14 90 0 1 -14 -14 V 440.0 H 56" fill="#fddbc7" stroke="#fddbc7" stroke-width="0"/>
	<rect x="538" y="415" width="56" height="50" fill="none" rx="14" stroke="#d6604d" stroke-width="2"/>
	<line x1="538" y1="440" x2="594" y2="440" stroke="#d6604d" stroke-width="1"/>
	<text x="545" y="432.7" fill="#000000" font-family="Verdana" font-size="12">Stocke</text>
</g>

<!-- Association Genere -->
<line x1="390" y1="1119" x2="232" y2="1119" stroke="#d6604d" stroke-width="2"/>
<text x="326" y="1136.0" fill="#2166ac" font-family="Verdana" font-size="12">1,1</text>
<line x1="232" y1="968" x2="232" y2="1119" stroke="#d6604d" stroke-width="2"/>
<text x="237.0" y="1010" fill="#2166ac" font-family="Verdana" font-size="12">0,1</text>
<g id="association-Genere">
	<path d="M 248 1094 a 14 14 90 0 1 14 14 V 1119 h -60 V 1108 a 14 14 90 0 1 14 -14" fill="#f4a582" stroke="#f4a582" stroke-width="0"/>
	<path d="M 262 1119.0 v 11 a 14 14 90 0 1 -14 14 H 216 a 14 14 90 0 1 -14 -14 V 1119.0 H 60" fill="#fddbc7" stroke="#fddbc7" stroke-width="0"/>
	<rect x="202" y="1094" width="60" height="50" fill="none" rx="14" stroke="#d6604d" stroke-width="2"/>
	<line x1="202" y1="1119" x2="262" y2="1119" stroke="#d6604d" stroke-width="1"/>
	<text x="209" y="1111.7" fill="#000000" font-family="Verdana" font-size="12">Genere</text>
</g>

<!-- Association PossedeRecolte -->
<line x1="891" y1="607" x2="891" y2="440" stroke="#d6604d" stroke-width="2"/>
<text x="896.0" y="548" fill="#2166ac" font-family="Verdana" font-size="12">1,N</text>
<line x1="891" y1="330" x2="891" y2="440" stroke="#d6604d" stroke-width="2"/>
<text x="896.0" y="398" fill="#2166ac" font-family="Verdana" font-size="12">1,1</text>
<g id="association-PossedeRecolte">
	<path d="M 931 415 a 14 14 90 0 1 14 14 V 440 h -108 V 429 a 14 14 90 0 1 14 -14" fill="#f4a582" stroke="#f4a582" stroke-width="0"/>
	<path d="M 945 440.0 v 11 a 14 14 90 0 1 -14 14 H 851 a 14 14 90 0 1 -14 -14 V 440.0 H 108" fill="#fddbc7" stroke="#fddbc7" stroke-width="0"/>
	<rect x="837" y="415" width="108" height="50" fill="none" rx="14" stroke="#d6604d" stroke-width="2"/>
	<line x1="837" y1="440" x2="945" y2="440" stroke="#d6604d" stroke-width="1"/>
	<text x="844" y="432.7" fill="#000000" font-family="Verdana" font-size="12">PossedeRecolte</text>
</g>

<!-- Association InclutPr -->
<line x1="566" y1="968" x2="735" y2="742" stroke="#d6604d" stroke-width="2"/>
<text x="588.33745995" y="935" fill="#2166ac" font-family="Verdana" font-size="12">1,N</text>
<line x1="891" y1="607" x2="735" y2="742" stroke="#d6604d" stroke-width="2"/>
<text x="812" y="650.351229206" fill="#2166ac" font-family="Verdana" font-size="12">0,N</text>
<g id="association-InclutPr">
	<path d="M 794 708 a 14 14 90 0 1 14 14 V 733 h -146 V 722 a 14 14 90 0 1 14 -14" fill="#f4a582" stroke="#f4a582" stroke-width="0"/>
	<path d="M 808 733.0 v 29 a 14 14 90 0 1 -14 14 H 676 a 14 14 90 0 1 -14 -14 V 733.0 H 146" fill="#fddbc7" stroke="#fddbc7" stroke-width="0"/>
	<rect x="662" y="708" width="146" height="68" fill="none" rx="14" stroke="#d6604d" stroke-width="2"/>
	<line x1="662" y1="733" x2="808" y2="733" stroke="#d6604d" stroke-width="1"/>
	<text x="711" y="725.7" fill="#000000" font-family="Verdana" font-size="12">InclutPr</text>
	<text x="669" y="750.8" fill="#000000" font-family="Verdana" font-size="12">quantite_commandee</text>
	<text x="669" y="767.8" fill="#000000" font-family="Verdana" font-size="12">prix</text>
</g>

<!-- Association Contient -->
<line x1="755" y1="330" x2="755" y2="440" stroke="#d6604d" stroke-width="2"/>
<text x="760.0" y="381" fill="#2166ac" font-family="Verdana" font-size="12">0,N</text>
<line x1="891" y1="607" x2="755" y2="440" stroke="#d6604d" stroke-width="2"/>
<text x="848.413845489" y="548" fill="#2166ac" font-family="Verdana" font-size="12">1,1</text>
<g id="association-Contient">
	<path d="M 774 415 a 14 14 90 0 1 14 14 V 440 h -66 V 429 a 14 14 90 0 1 14 -14" fill="#f4a582" stroke="#f4a582" stroke-width="0"/>
	<path d="M 788 440.0 v 11 a 14 14 90 0 1 -14 14 H 736 a 14 14 90 0 1 -14 -14 V 440.0 H 66" fill="#fddbc7" stroke="#fddbc7" stroke-width="0"/>
	<rect x="722" y="415" width="66" height="50" fill="none" rx="14" stroke="#d6604d" stroke-width="2"/>
	<line x1="722" y1="440" x2="788" y2="440" stroke="#d6604d" stroke-width="1"/>
	<text x="729" y="432.7" fill="#000000" font-family="Verdana" font-size="12">Contient</text>
</g>

<!-- Association PossedeWallet -->
<line x1="75" y1="742" x2="75" y2="607" stroke="#d6604d" stroke-width="2"/>
<text x="80.0" y="700" fill="#2166ac" font-family="Verdana" font-size="12">1,1</text>
<line x1="75" y1="330" x2="75" y2="607" stroke="#d6604d" stroke-width="2"/>
<text x="49.0" y="415" fill="#2166ac" font-family="Verdana" font-size="12">1,1</text>
<g id="association-PossedeWallet">
	<path d="M 112 582 a 14 14 90 0 1 14 14 V 607 h -102 V 596 a 14 14 90 0 1 14 -14" fill="#f4a582" stroke="#f4a582" stroke-width="0"/>
	<path d="M 126 607.0 v 11 a 14 14 90 0 1 -14 14 H 38 a 14 14 90 0 1 -14 -14 V 607.0 H 102" fill="#fddbc7" stroke="#fddbc7" stroke-width="0"/>
	<rect x="24" y="582" width="102" height="50" fill="none" rx="14" stroke="#d6604d" stroke-width="2"/>
	<line x1="24" y1="607" x2="126" y2="607" stroke="#d6604d" stroke-width="1"/>
	<text x="31" y="599.7" fill="#000000" font-family="Verdana" font-size="12">PossedeWallet</text>
</g>

<!-- Association Consomme -->
<line x1="75" y1="742" x2="75" y2="826" stroke="#d6604d" stroke-width="2"/>
<text x="80.0" y="793" fill="#2166ac" font-family="Verdana" font-size="12">0,N</text>
<line x1="232" y1="968" x2="75" y2="826" stroke="#d6604d" stroke-width="2"/>
<text x="202.789192263" y="935" fill="#2166ac" font-family="Verdana" font-size="12">0,1</text>
<g id="association-Consomme">
	<path d="M 127 801 a 14 14 90 0 1 14 14 V 826 h -132 V 815 a 14 14 90 0 1 14 -14" fill="#f4a582" stroke="#f4a582" stroke-width="0"/>
	<path d="M 141 826.0 v 11 a 14 14 90 0 1 -14 14 H 23 a 14 14 90 0 1 -14 -14 V 826.0 H 132" fill="#fddbc7" stroke="#fddbc7" stroke-width="0"/>
	<rect x="9" y="801" width="132" height="50" fill="none" rx="14" stroke="#d6604d" stroke-width="2"/>
	<line x1="9" y1="826" x2="141" y2="826" stroke="#d6604d" stroke-width="1"/>
	<text x="41" y="818.7" fill="#000000" font-family="Verdana" font-size="12">Consomme</text>
	<text x="16" y="843.8" fill="#000000" font-family="Verdana" font-size="12">points_consommes</text>
</g>

<!-- Association Ecrit -->
<line x1="75" y1="330" x2="232" y2="195" stroke="#d6604d" stroke-width="2"/>
<text x="134" y="294.247167092" fill="#2166ac" font-family="Verdana" font-size="12">0,N</text>
<line x1="232" y1="77" x2="232" y2="195" stroke="#d6604d" stroke-width="2"/>
<text x="237.0" y="162" fill="#2166ac" font-family="Verdana" font-size="12">1,1</text>
<g id="association-Ecrit">
	<path d="M 264 170 a 14 14 90 0 1 14 14 V 195 h -92 V 184 a 14 14 90 0 1 14 -14" fill="#f4a582" stroke="#f4a582" stroke-width="0"/>
	<path d="M 278 195.0 v 11 a 14 14 90 0 1 -14 14 H 200 a 14 14 90 0 1 -14 -14 V 195.0 H 92" fill="#fddbc7" stroke="#fddbc7" stroke-width="0"/>
	<rect x="186" y="170" width="92" height="50" fill="none" rx="14" stroke="#d6604d" stroke-width="2"/>
	<line x1="186" y1="195" x2="278" y2="195" stroke="#d6604d" stroke-width="1"/>
	<text x="218" y="187.7" fill="#000000" font-family="Verdana" font-size="12">Ecrit</text>
	<text x="193" y="212.8" fill="#000000" font-family="Verdana" font-size="12">date_Review</text>
</g>

<!-- Association ChoisitPc -->
<line x1="566" y1="77" x2="566" y2="195" stroke="#d6604d" stroke-width="2"/>
<text x="539.0" y="153" fill="#2166ac" font-family="Verdana" font-size="12">1,N</text>
<line x1="390" y1="77" x2="566" y2="195" stroke="#d6604d" stroke-width="2"/>
<text x="437" y="102.294624402" fill="#2166ac" font-family="Verdana" font-size="12">1,N</text>
<g id="association-ChoisitPc">
	<path d="M 611 170 a 14 14 90 0 1 14 14 V 195 h -118 V 184 a 14 14 90 0 1 14 -14" fill="#f4a582" stroke="#f4a582" stroke-width="0"/>
	<path d="M 625 195.0 v 11 a 14 14 90 0 1 -14 14 H 521 a 14 14 90 0 1 -14 -14 V 195.0 H 118" fill="#fddbc7" stroke="#fddbc7" stroke-width="0"/>
	<rect x="507" y="170" width="118" height="50" fill="none" rx="14" stroke="#d6604d" stroke-width="2"/>
	<line x1="507" y1="195" x2="625" y2="195" stroke="#d6604d" stroke-width="1"/>
	<text x="538" y="187.7" fill="#000000" font-family="Verdana" font-size="12">ChoisitPc</text>
	<text x="514" y="212.8" fill="#000000" font-family="Verdana" font-size="12">date_reservation</text>
</g>

<!-- Association ChoisitPcF -->
<line x1="390" y1="330" x2="755" y2="195" stroke="#d6604d" stroke-width="2"/>
<text x="449" y="317.135413265" fill="#2166ac" font-family="Verdana" font-size="12">1,N</text>
<line x1="566" y1="77" x2="755" y2="195" stroke="#d6604d" stroke-width="2"/>
<text x="616" y="101.913029349" fill="#2166ac" font-family="Verdana" font-size="12">1,N</text>
<g id="association-ChoisitPcF">
	<path d="M 800 170 a 14 14 90 0 1 14 14 V 195 h -118 V 184 a 14 14 90 0 1 14 -14" fill="#f4a582" stroke="#f4a582" stroke-width="0"/>
	<path d="M 814 195.0 v 11 a 14 14 90 0 1 -14 14 H 710 a 14 14 90 0 1 -14 -14 V 195.0 H 118" fill="#fddbc7" stroke="#fddbc7" stroke-width="0"/>
	<rect x="696" y="170" width="118" height="50" fill="none" rx="14" stroke="#d6604d" stroke-width="2"/>
	<line x1="696" y1="195" x2="814" y2="195" stroke="#d6604d" stroke-width="1"/>
	<text x="724" y="187.7" fill="#000000" font-family="Verdana" font-size="12">ChoisitPcF</text>
	<text x="703" y="212.8" fill="#000000" font-family="Verdana" font-size="12">date_reservation</text>
</g>

<!-- Association Participe -->
<line x1="390" y1="330" x2="390" y2="195" stroke="#d6604d" stroke-width="2"/>
<text x="363.0" y="237" fill="#2166ac" font-family="Verdana" font-size="12">0,N</text>
<line x1="390" y1="77" x2="390" y2="195" stroke="#d6604d" stroke-width="2"/>
<text x="363.0" y="128" fill="#2166ac" font-family="Verdana" font-size="12">2,N</text>
<g id="association-Participe">
	<path d="M 429 170 a 14 14 90 0 1 14 14 V 195 h -106 V 184 a 14 14 90 0 1 14 -14" fill="#f4a582" stroke="#f4a582" stroke-width="0"/>
	<path d="M 443 195.0 v 11 a 14 14 90 0 1 -14 14 H 351 a 14 14 90 0 1 -14 -14 V 195.0 H 106" fill="#fddbc7" stroke="#fddbc7" stroke-width="0"/>
	<rect x="337" y="170" width="106" height="50" fill="none" rx="14" stroke="#d6604d" stroke-width="2"/>
	<line x1="337" y1="195" x2="443" y2="195" stroke="#d6604d" stroke-width="1"/>
	<text x="363" y="187.7" fill="#000000" font-family="Verdana" font-size="12">Participe</text>
	<text x="344" y="212.8" fill="#000000" font-family="Verdana" font-size="12">date_affiliation</text>
</g>

<!-- Association InclutPa -->
<line x1="566" y1="968" x2="566" y2="742" stroke="#d6604d" stroke-width="2"/>
<text x="561.0" y="935" fill="#2166ac" font-family="Verdana" font-size="12">1,N</text>
<line x1="566" y1="607" x2="566" y2="742" stroke="#d6604d" stroke-width="2"/>
<text x="571.0" y="666" fill="#2166ac" font-family="Verdana" font-size="12">0,N</text>
<g id="association-InclutPa">
	<path d="M 636 708 a 14 14 90 0 1 14 14 V 733 h -168 V 722 a 14 14 90 0 1 14 -14" fill="#f4a582" stroke="#f4a582" stroke-width="0"/>
	<path d="M 650 733.0 v 29 a 14 14 90 0 1 -14 14 H 496 a 14 14 90 0 1 -14 -14 V 733.0 H 168" fill="#fddbc7" stroke="#fddbc7" stroke-width="0"/>
	<rect x="482" y="708" width="168" height="68" fill="none" rx="14" stroke="#d6604d" stroke-width="2"/>
	<line x1="482" y1="733" x2="650" y2="733" stroke="#d6604d" stroke-width="1"/>
	<text x="541" y="725.7" fill="#000000" font-family="Verdana" font-size="12">InclutPa</text>
	<text x="489" y="750.8" fill="#000000" font-family="Verdana" font-size="12">qte_paniers_commandee</text>
	<text x="489" y="767.8" fill="#000000" font-family="Verdana" font-size="12">prix</text>
</g>

<!-- Association PossedeStock -->
<line x1="390" y1="330" x2="566" y2="330" stroke="#d6604d" stroke-width="2"/>
<text x="449" y="340.0" fill="#2166ac" font-family="Verdana" font-size="12">1,N</text>
<line x1="755" y1="330" x2="566" y2="330" stroke="#d6604d" stroke-width="2"/>
<text x="687" y="322.0" fill="#2166ac" font-family="Verdana" font-size="12">1,1</text>
<g id="association-PossedeStock">
	<path d="M 601 305 a 14 14 90 0 1 14 14 V 330 h -98 V 319 a 14 14 90 0 1 14 -14" fill="#f4a582" stroke="#f4a582" stroke-width="0"/>
	<path d="M 615 330.0 v 11 a 14 14 90 0 1 -14 14 H 531 a 14 14 90 0 1 -14 -14 V 330.0 H 98" fill="#fddbc7" stroke="#fddbc7" stroke-width="0"/>
	<rect x="517" y="305" width="98" height="50" fill="none" rx="14" stroke="#d6604d" stroke-width="2"/>
	<line x1="517" y1="330" x2="615" y2="330" stroke="#d6604d" stroke-width="1"/>
	<text x="524" y="322.7" fill="#000000" font-family="Verdana" font-size="12">PossedeStock</text>
</g>

<!-- Association EstDeType -->
<line x1="891" y1="607" x2="891" y2="968" stroke="#d6604d" stroke-width="2"/>
<text x="896.0" y="675" fill="#2166ac" font-family="Verdana" font-size="12">0,1</text>
<line x1="755" y1="1119" x2="891" y2="968" stroke="#d6604d" stroke-width="2"/>
<text x="757.065625589" y="1086" fill="#2166ac" font-family="Verdana" font-size="12">1,N</text>
<g id="association-EstDeType">
	<path d="M 917 943 a 14 14 90 0 1 14 14 V 968 h -80 V 957 a 14 14 90 0 1 14 -14" fill="#f4a582" stroke="#f4a582" stroke-width="0"/>
	<path d="M 931 968.0 v 11 a 14 14 90 0 1 -14 14 H 865 a 14 14 90 0 1 -14 -14 V 968.0 H 80" fill="#fddbc7" stroke="#fddbc7" stroke-width="0"/>
	<rect x="851" y="943" width="80" height="50" fill="none" rx="14" stroke="#d6604d" stroke-width="2"/>
	<line x1="851" y1="968" x2="931" y2="968" stroke="#d6604d" stroke-width="1"/>
	<text x="858" y="960.7" fill="#000000" font-family="Verdana" font-size="12">EstDeType</text>
</g>

<!-- Association Effectue -->
<line x1="75" y1="330" x2="232" y2="607" stroke="#d6604d" stroke-width="2"/>
<text x="90.9475591363" y="415" fill="#2166ac" font-family="Verdana" font-size="12">0,N</text>
<line x1="232" y1="968" x2="232" y2="607" stroke="#d6604d" stroke-width="2"/>
<text x="227.0" y="935" fill="#2166ac" font-family="Verdana" font-size="12">1,1</text>
<g id="association-Effectue">
	<path d="M 250 582 a 14 14 90 0 1 14 14 V 607 h -64 V 596 a 14 14 90 0 1 14 -14" fill="#f4a582" stroke="#f4a582" stroke-width="0"/>
	<path d="M 264 607.0 v 11 a 14 14 90 0 1 -14 14 H 214 a 14 14 90 0 1 -14 -14 V 607.0 H 64" fill="#fddbc7" stroke="#fddbc7" stroke-width="0"/>
	<rect x="200" y="582" width="64" height="50" fill="none" rx="14" stroke="#d6604d" stroke-width="2"/>
	<line x1="200" y1="607" x2="264" y2="607" stroke="#d6604d" stroke-width="1"/>
	<text x="207" y="599.7" fill="#000000" font-family="Verdana" font-size="12">Effectue</text>
</g>

<!-- Association Renseigne -->
<line x1="75" y1="330" x2="252" y2="515" stroke="#d6604d" stroke-width="2"/>
<text x="134" y="385.290739555" fill="#2166ac" font-family="Verdana" font-size="12">0,N</text>
<line x1="370" y1="742" x2="252" y2="515" stroke="#d6604d" stroke-width="2"/>
<text x="353.267598715" y="700" fill="#2166ac" font-family="Verdana" font-size="12">1,1</text>
<g id="association-Renseigne">
	<path d="M 277 490 a 14 14 90 0 1 14 14 V 515 h -78 V 504 a 14 14 90 0 1 14 -14" fill="#f4a582" stroke="#f4a582" stroke-width="0"/>
	<path d="M 291 515.0 v 11 a 14 14 90 0 1 -14 14 H 227 a 14 14 90 0 1 -14 -14 V 515.0 H 78" fill="#fddbc7" stroke="#fddbc7" stroke-width="0"/>
	<rect x="213" y="490" width="78" height="50" fill="none" rx="14" stroke="#d6604d" stroke-width="2"/>
	<line x1="213" y1="515" x2="291" y2="515" stroke="#d6604d" stroke-width="1"/>
	<text x="220" y="507.7" fill="#000000" font-family="Verdana" font-size="12">Renseigne</text>
</g>

<!-- Entity Produit -->
<g id="entity-Produit">
	<g id="frame-Produit">
		<rect x="839" y="556" width="104" height="25" fill="#92c5de" stroke="#92c5de" stroke-width="0"/>
		<rect x="839" y="581.0" width="104" height="77" fill="#d1e5f0" stroke="#d1e5f0" stroke-width="0"/>
		<rect x="839" y="556" width="104" height="102" fill="none" stroke="#4393c3" stroke-width="2"/>
		<line x1="839" y1="581" x2="943" y2="581" stroke="#4393c3" stroke-width="1"/>
	</g>
	<text x="869" y="573.7" fill="#000000" font-family="Verdana" font-size="12">Produit</text>
	<text x="844" y="598.7" fill="#000000" font-family="Verdana" font-size="12">ID_produit</text>
	<line x1="844" y1="601" x2="910" y2="601" stroke="#000000" stroke-width="1"/>
	<text x="844" y="615.8" fill="#000000" font-family="Verdana" font-size="12">decription</text>
	<text x="844" y="632.8" fill="#000000" font-family="Verdana" font-size="12">prix</text>
	<text x="844" y="649.8" fill="#000000" font-family="Verdana" font-size="12">unité_stockage</text>
</g>

<!-- Entity MethodePaiement -->
<g id="entity-MethodePaiement">
	<g id="frame-MethodePaiement">
		<rect x="310" y="708" width="120" height="25" fill="#92c5de" stroke="#92c5de" stroke-width="0"/>
		<rect x="310" y="733.0" width="120" height="43" fill="#d1e5f0" stroke="#d1e5f0" stroke-width="0"/>
		<rect x="310" y="708" width="120" height="68" fill="none" stroke="#4393c3" stroke-width="2"/>
		<line x1="310" y1="733" x2="430" y2="733" stroke="#4393c3" stroke-width="1"/>
	</g>
	<text x="315" y="725.7" fill="#000000" font-family="Verdana" font-size="12">MethodePaiement</text>
	<text x="315" y="750.8" fill="#000000" font-family="Verdana" font-size="12">Id_method</text>
	<line x1="315" y1="753" x2="382" y2="753" stroke="#000000" stroke-width="1"/>
	<text x="315" y="767.8" fill="#000000" font-family="Verdana" font-size="12">designation</text>
</g>

<!-- Entity HistoriqueProduit -->
<g id="entity-HistoriqueProduit">
	<g id="frame-HistoriqueProduit">
		<rect x="508" y="1060" width="116" height="25" fill="#92c5de" stroke="#92c5de" stroke-width="0"/>
		<rect x="508" y="1085.0" width="116" height="93" fill="#d1e5f0" stroke="#d1e5f0" stroke-width="0"/>
		<rect x="508" y="1060" width="116" height="118" fill="none" stroke="#4393c3" stroke-width="2"/>
		<line x1="508" y1="1085" x2="624" y2="1085" stroke="#4393c3" stroke-width="1"/>
	</g>
	<text x="513" y="1077.7" fill="#000000" font-family="Verdana" font-size="12">HistoriqueProduit</text>
	<text x="513" y="1102.7" fill="#000000" font-family="Verdana" font-size="12">ID_historique</text>
	<line x1="513" y1="1105" x2="596" y2="1105" stroke="#000000" stroke-width="1"/>
	<text x="513" y="1119.8" fill="#000000" font-family="Verdana" font-size="12">date_production</text>
	<text x="513" y="1136.8" fill="#000000" font-family="Verdana" font-size="12">date_expiration</text>
	<text x="513" y="1153.8" fill="#000000" font-family="Verdana" font-size="12">qte_vendue</text>
	<text x="513" y="1170.8" fill="#000000" font-family="Verdana" font-size="12">qte_expiree</text>
</g>

<!-- Entity Fournisseur -->
<g id="entity-Fournisseur">
	<g id="frame-Fournisseur">
		<rect x="336" y="245" width="108" height="25" fill="#92c5de" stroke="#92c5de" stroke-width="0"/>
		<rect x="336" y="270.0" width="108" height="145" fill="#d1e5f0" stroke="#d1e5f0" stroke-width="0"/>
		<rect x="336" y="245" width="108" height="170" fill="none" stroke="#4393c3" stroke-width="2"/>
		<line x1="336" y1="270" x2="444" y2="270" stroke="#4393c3" stroke-width="1"/>
	</g>
	<text x="354" y="262.7" fill="#000000" font-family="Verdana" font-size="12">Fournisseur</text>
	<text x="341" y="287.7" fill="#000000" font-family="Verdana" font-size="12">ID_fournisseur</text>
	<line x1="341" y1="290" x2="431" y2="290" stroke="#000000" stroke-width="1"/>
	<text x="341" y="304.7" fill="#000000" font-family="Verdana" font-size="12">password</text>
	<text x="341" y="321.7" fill="#000000" font-family="Verdana" font-size="12">date_naissance</text>
	<text x="341" y="338.8" fill="#000000" font-family="Verdana" font-size="12">tel_portable</text>
	<text x="341" y="355.8" fill="#000000" font-family="Verdana" font-size="12">date_inscription</text>
	<text x="341" y="372.8" fill="#000000" font-family="Verdana" font-size="12">num_rue</text>
	<text x="341" y="389.8" fill="#000000" font-family="Verdana" font-size="12">nom_rue</text>
	<text x="341" y="406.8" fill="#000000" font-family="Verdana" font-size="12">code_postal</text>
</g>

<!-- Entity CommandeGlobale -->
<g id="entity-CommandeGlobale">
	<g id="frame-CommandeGlobale">
		<rect x="157" y="943" width="150" height="25" fill="#92c5de" stroke="#92c5de" stroke-width="0"/>
		<rect x="157" y="968.0" width="150" height="25" fill="#d1e5f0" stroke="#d1e5f0" stroke-width="0"/>
		<rect x="157" y="943" width="150" height="50" fill="none" stroke="#4393c3" stroke-width="2"/>
		<line x1="157" y1="968" x2="307" y2="968" stroke="#4393c3" stroke-width="1"/>
	</g>
	<text x="174" y="960.7" fill="#000000" font-family="Verdana" font-size="12">CommandeGlobale</text>
	<text x="162" y="985.8" fill="#000000" font-family="Verdana" font-size="12">ID_commande_globale</text>
	<line x1="162" y1="988" x2="302" y2="988" stroke="#000000" stroke-width="1"/>
</g>

<!-- Entity Recolte -->
<g id="entity-Recolte">
	<g id="frame-Recolte">
		<rect x="838" y="279" width="106" height="25" fill="#92c5de" stroke="#92c5de" stroke-width="0"/>
		<rect x="838" y="304.0" width="106" height="77" fill="#d1e5f0" stroke="#d1e5f0" stroke-width="0"/>
		<rect x="838" y="279" width="106" height="102" fill="none" stroke="#4393c3" stroke-width="2"/>
		<line x1="838" y1="304" x2="944" y2="304" stroke="#4393c3" stroke-width="1"/>
	</g>
	<text x="868" y="296.7" fill="#000000" font-family="Verdana" font-size="12">Recolte</text>
	<text x="843" y="321.7" fill="#000000" font-family="Verdana" font-size="12">ID_recolte</text>
	<line x1="843" y1="324" x2="907" y2="324" stroke="#000000" stroke-width="1"/>
	<text x="843" y="338.8" fill="#000000" font-family="Verdana" font-size="12">qte_recoltee</text>
	<text x="843" y="355.8" fill="#000000" font-family="Verdana" font-size="12">date_recolte</text>
	<text x="843" y="372.8" fill="#000000" font-family="Verdana" font-size="12">date_expiration</text>
</g>

<!-- Entity Review -->
<g id="entity-Review">
	<g id="frame-Review">
		<rect x="182" y="9" width="100" height="25" fill="#92c5de" stroke="#92c5de" stroke-width="0"/>
		<rect x="182" y="34.0" width="100" height="111" fill="#d1e5f0" stroke="#d1e5f0" stroke-width="0"/>
		<rect x="182" y="9" width="100" height="136" fill="none" stroke="#4393c3" stroke-width="2"/>
		<line x1="182" y1="34" x2="282" y2="34" stroke="#4393c3" stroke-width="1"/>
	</g>
	<text x="210" y="26.7" fill="#000000" font-family="Verdana" font-size="12">Review</text>
	<text x="187" y="51.7" fill="#000000" font-family="Verdana" font-size="12">ID_Review</text>
	<line x1="187" y1="54" x2="253" y2="54" stroke="#000000" stroke-width="1"/>
	<text x="187" y="68.7" fill="#000000" font-family="Verdana" font-size="12">ID_fournisseur</text>
	<text x="187" y="85.8" fill="#000000" font-family="Verdana" font-size="12">ID_produit</text>
	<text x="187" y="102.8" fill="#000000" font-family="Verdana" font-size="12">title</text>
	<text x="187" y="119.8" fill="#000000" font-family="Verdana" font-size="12">score</text>
	<text x="187" y="136.8" fill="#000000" font-family="Verdana" font-size="12">content</text>
</g>

<!-- Entity Facture -->
<g id="entity-Facture">
	<g id="frame-Facture">
		<rect x="352" y="1077" width="76" height="25" fill="#92c5de" stroke="#92c5de" stroke-width="0"/>
		<rect x="352" y="1102.0" width="76" height="59" fill="#d1e5f0" stroke="#d1e5f0" stroke-width="0"/>
		<rect x="352" y="1077" width="76" height="84" fill="none" stroke="#4393c3" stroke-width="2"/>
		<line x1="352" y1="1102" x2="428" y2="1102" stroke="#4393c3" stroke-width="1"/>
	</g>
	<text x="367" y="1094.7" fill="#000000" font-family="Verdana" font-size="12">Facture</text>
	<text x="357" y="1119.8" fill="#000000" font-family="Verdana" font-size="12">ID_facture</text>
	<line x1="357" y1="1122" x2="422" y2="1122" stroke="#000000" stroke-width="1"/>
	<text x="357" y="1136.8" fill="#000000" font-family="Verdana" font-size="12">montant</text>
	<text x="357" y="1153.8" fill="#000000" font-family="Verdana" font-size="12">date</text>
</g>

<!-- Entity PointCollecte -->
<g id="entity-PointCollecte">
	<g id="frame-PointCollecte">
		<rect x="521" y="18" width="90" height="25" fill="#92c5de" stroke="#92c5de" stroke-width="0"/>
		<rect x="521" y="43.0" width="90" height="93" fill="#d1e5f0" stroke="#d1e5f0" stroke-width="0"/>
		<rect x="521" y="18" width="90" height="118" fill="none" stroke="#4393c3" stroke-width="2"/>
		<line x1="521" y1="43" x2="611" y2="43" stroke="#4393c3" stroke-width="1"/>
	</g>
	<text x="526" y="35.7" fill="#000000" font-family="Verdana" font-size="12">PointCollecte</text>
	<text x="526" y="60.7" fill="#000000" font-family="Verdana" font-size="12">ID_point</text>
	<line x1="526" y1="63" x2="579" y2="63" stroke="#000000" stroke-width="1"/>
	<text x="526" y="77.8" fill="#000000" font-family="Verdana" font-size="12">description</text>
	<text x="526" y="94.8" fill="#000000" font-family="Verdana" font-size="12">num_rue</text>
	<text x="526" y="111.8" fill="#000000" font-family="Verdana" font-size="12">nom_rue</text>
	<text x="526" y="128.8" fill="#000000" font-family="Verdana" font-size="12">code_postal</text>
</g>

<!-- Entity Wallet -->
<g id="entity-Wallet">
	<g id="frame-Wallet">
		<rect x="41" y="708" width="68" height="25" fill="#92c5de" stroke="#92c5de" stroke-width="0"/>
		<rect x="41" y="733.0" width="68" height="43" fill="#d1e5f0" stroke="#d1e5f0" stroke-width="0"/>
		<rect x="41" y="708" width="68" height="68" fill="none" stroke="#4393c3" stroke-width="2"/>
		<line x1="41" y1="733" x2="109" y2="733" stroke="#4393c3" stroke-width="1"/>
	</g>
	<text x="55" y="725.7" fill="#000000" font-family="Verdana" font-size="12">Wallet</text>
	<text x="46" y="750.8" fill="#000000" font-family="Verdana" font-size="12">ID_wallet</text>
	<line x1="46" y1="753" x2="104" y2="753" stroke="#000000" stroke-width="1"/>
	<text x="46" y="767.8" fill="#000000" font-family="Verdana" font-size="12">solde</text>
</g>

<!-- Entity Client -->
<g id="entity-Client">
	<g id="frame-Client">
		<rect x="21" y="262" width="108" height="25" fill="#92c5de" stroke="#92c5de" stroke-width="0"/>
		<rect x="21" y="287.0" width="108" height="111" fill="#d1e5f0" stroke="#d1e5f0" stroke-width="0"/>
		<rect x="21" y="262" width="108" height="136" fill="none" stroke="#4393c3" stroke-width="2"/>
		<line x1="21" y1="287" x2="129" y2="287" stroke="#4393c3" stroke-width="1"/>
	</g>
	<text x="57" y="279.7" fill="#000000" font-family="Verdana" font-size="12">Client</text>
	<text x="26" y="304.7" fill="#000000" font-family="Verdana" font-size="12">ID_client</text>
	<line x1="26" y1="307" x2="81" y2="307" stroke="#000000" stroke-width="1"/>
	<text x="26" y="321.7" fill="#000000" font-family="Verdana" font-size="12">email</text>
	<text x="26" y="338.8" fill="#000000" font-family="Verdana" font-size="12">age</text>
	<text x="26" y="355.8" fill="#000000" font-family="Verdana" font-size="12">numero_tel</text>
	<text x="26" y="372.8" fill="#000000" font-family="Verdana" font-size="12">date_inscription</text>
	<text x="26" y="389.8" fill="#000000" font-family="Verdana" font-size="12">adresse</text>
</g>

<!-- Entity Commande -->
<g id="entity-Commande">
	<g id="frame-Commande">
		<rect x="516" y="943" width="100" height="25" fill="#92c5de" stroke="#92c5de" stroke-width="0"/>
		<rect x="516" y="968.0" width="100" height="25" fill="#d1e5f0" stroke="#d1e5f0" stroke-width="0"/>
		<rect x="516" y="943" width="100" height="50" fill="none" stroke="#4393c3" stroke-width="2"/>
		<line x1="516" y1="968" x2="616" y2="968" stroke="#4393c3" stroke-width="1"/>
	</g>
	<text x="531" y="960.7" fill="#000000" font-family="Verdana" font-size="12">Commande</text>
	<text x="521" y="985.8" fill="#000000" font-family="Verdana" font-size="12">ID_commande</text>
	<line x1="521" y1="988" x2="610" y2="988" stroke="#000000" stroke-width="1"/>
</g>

<!-- Entity Cooperative -->
<g id="entity-Cooperative">
	<g id="frame-Cooperative">
		<rect x="348" y="43" width="84" height="25" fill="#92c5de" stroke="#92c5de" stroke-width="0"/>
		<rect x="348" y="68.0" width="84" height="43" fill="#d1e5f0" stroke="#d1e5f0" stroke-width="0"/>
		<rect x="348" y="43" width="84" height="68" fill="none" stroke="#4393c3" stroke-width="2"/>
		<line x1="348" y1="68" x2="432" y2="68" stroke="#4393c3" stroke-width="1"/>
	</g>
	<text x="353" y="60.7" fill="#000000" font-family="Verdana" font-size="12">Cooperative</text>
	<text x="353" y="85.8" fill="#000000" font-family="Verdana" font-size="12">ID_coop</text>
	<line x1="353" y1="88" x2="404" y2="88" stroke="#000000" stroke-width="1"/>
	<text x="353" y="102.8" fill="#000000" font-family="Verdana" font-size="12">nom</text>
</g>

<!-- Entity Panier -->
<g id="entity-Panier">
	<g id="frame-Panier">
		<rect x="527" y="565" width="78" height="25" fill="#92c5de" stroke="#92c5de" stroke-width="0"/>
		<rect x="527" y="590.0" width="78" height="59" fill="#d1e5f0" stroke="#d1e5f0" stroke-width="0"/>
		<rect x="527" y="565" width="78" height="84" fill="none" stroke="#4393c3" stroke-width="2"/>
		<line x1="527" y1="590" x2="605" y2="590" stroke="#4393c3" stroke-width="1"/>
	</g>
	<text x="546" y="582.7" fill="#000000" font-family="Verdana" font-size="12">Panier</text>
	<text x="532" y="607.8" fill="#000000" font-family="Verdana" font-size="12">ID_panier</text>
	<line x1="532" y1="610" x2="593" y2="610" stroke="#000000" stroke-width="1"/>
	<text x="532" y="624.8" fill="#000000" font-family="Verdana" font-size="12">description</text>
	<text x="532" y="641.8" fill="#000000" font-family="Verdana" font-size="12">prix</text>
</g>

<!-- Entity TypeProduit -->
<g id="entity-TypeProduit">
	<g id="frame-TypeProduit">
		<rect x="698" y="1094" width="114" height="25" fill="#92c5de" stroke="#92c5de" stroke-width="0"/>
		<rect x="698" y="1119.0" width="114" height="25" fill="#d1e5f0" stroke="#d1e5f0" stroke-width="0"/>
		<rect x="698" y="1094" width="114" height="50" fill="none" stroke="#4393c3" stroke-width="2"/>
		<line x1="698" y1="1119" x2="812" y2="1119" stroke="#4393c3" stroke-width="1"/>
	</g>
	<text x="718" y="1111.7" fill="#000000" font-family="Verdana" font-size="12">TypeProduit</text>
	<text x="703" y="1136.8" fill="#000000" font-family="Verdana" font-size="12">ID_product_type</text>
	<line x1="703" y1="1139" x2="806" y2="1139" stroke="#000000" stroke-width="1"/>
</g>

<!-- Entity Stock -->
<g id="entity-Stock">
	<g id="frame-Stock">
		<rect x="713" y="296" width="84" height="25" fill="#92c5de" stroke="#92c5de" stroke-width="0"/>
		<rect x="713" y="321.0" width="84" height="43" fill="#d1e5f0" stroke="#d1e5f0" stroke-width="0"/>
		<rect x="713" y="296" width="84" height="68" fill="none" stroke="#4393c3" stroke-width="2"/>
		<line x1="713" y1="321" x2="797" y2="321" stroke="#4393c3" stroke-width="1"/>
	</g>
	<text x="737" y="313.7" fill="#000000" font-family="Verdana" font-size="12">Stock</text>
	<text x="718" y="338.8" fill="#000000" font-family="Verdana" font-size="12">ID_stock</text>
	<line x1="718" y1="341" x2="773" y2="341" stroke="#000000" stroke-width="1"/>
	<text x="718" y="355.8" fill="#000000" font-family="Verdana" font-size="12">qte_stockee</text>
</g>
</svg>