<?xml version="1.0" standalone="no"?>
<!DOCTYPE svg PUBLIC "-//W3C//DTD SVG 1.1//EN"
"http://www.w3.org/Graphics/SVG/1.1/DTD/svg11.dtd">

<svg width="919" height="674" view_box="0 0 919 674"
xmlns="http://www.w3.org/2000/svg"
xmlns:link="http://www.w3.org/1999/xlink">\n\n<desc>Généré par Mocodo 2.3.5 le Mon, 13 Nov 2017 03:47:20</desc>

<rect id="frame" x="0" y="0" width="919" height="674" fill="#ffffff" stroke="none" stroke-width="0"/>

<!-- Association CONTIENT -->
<line x1="634" y1="429" x2="634" y2="513" stroke="#d6604d" stroke-width="2"/>
<text x="639.0" y="480" fill="#4d4d4d" font-family="Verdana" font-size="12">0,N</text>
<line x1="495" y1="614" x2="634" y2="513" stroke="#d6604d" stroke-width="2"/>
<text x="543" y="594.248232906" fill="#4d4d4d" font-family="Verdana" font-size="12">1,1</text>
<g id="association-CONTIENT">
	<path d="M 659 488 a 14 14 90 0 1 14 14 V 513 h -78 V 502 a 14 14 90 0 1 14 -14" fill="#f4a582" stroke="#f4a582" stroke-width="0"/>
	<path d="M 673 513.0 v 11 a 14 14 90 0 1 -14 14 H 609 a 14 14 90 0 1 -14 -14 V 513.0 H 78" fill="#fddbc7" stroke="#fddbc7" stroke-width="0"/>
	<rect x="595" y="488" width="78" height="50" fill="none" rx="14" stroke="#d6604d" stroke-width="2"/>
	<line x1="595" y1="513" x2="673" y2="513" stroke="#d6604d" stroke-width="1"/>
	<text x="602" y="505.7" fill="#000000" font-family="Verdana" font-size="12">CONTIENT</text>
</g>

<!-- Association EST_COMPATABILISE -->
<line x1="357" y1="614" x2="357" y2="513" stroke="#d6604d" stroke-width="2"/>
<text x="362.0" y="564" fill="#4d4d4d" font-family="Verdana" font-size="12">1,1</text>
<line x1="495" y1="429" x2="357" y2="513" stroke="#d6604d" stroke-width="2"/>
<text x="454.221064554" y="471" fill="#4d4d4d" font-family="Verdana" font-size="12">1,1</text>
<g id="association-EST_COMPATABILISE">
	<path d="M 416 488 a 14 14 90 0 1 14 14 V 513 h -146 V 502 a 14 14 90 0 1 14 -14" fill="#f4a582" stroke="#f4a582" stroke-width="0"/>
	<path d="M 430 513.0 v 11 a 14 14 90 0 1 -14 14 H 298 a 14 14 90 0 1 -14 -14 V 513.0 H 146" fill="#fddbc7" stroke="#fddbc7" stroke-width="0"/>
	<rect x="284" y="488" width="146" height="50" fill="none" rx="14" stroke="#d6604d" stroke-width="2"/>
	<line x1="284" y1="513" x2="430" y2="513" stroke="#d6604d" stroke-width="1"/>
	<text x="291" y="505.7" fill="#000000" font-family="Verdana" font-size="12">EST_COMPATABILISE</text>
</g>

<!-- Association APPARTIENT -->
<line x1="634" y1="261" x2="560" y2="354" stroke="#d6604d" stroke-width="2"/>
<text x="613.166947864" y="303" fill="#4d4d4d" font-family="Verdana" font-size="12">1,N</text>
<line x1="634" y1="429" x2="560" y2="354" stroke="#d6604d" stroke-width="2"/>
<text x="575" y="405.550165993" fill="#4d4d4d" font-family="Verdana" font-size="12">1,1</text>
<g id="association-APPARTIENT">
	<path d="M 592 329 a 14 14 90 0 1 14 14 V 354 h -92 V 343 a 14 14 90 0 1 14 -14" fill="#f4a582" stroke="#f4a582" stroke-width="0"/>
	<path d="M 606 354.0 v 11 a 14 14 90 0 1 -14 14 H 528 a 14 14 90 0 1 -14 -14 V 354.0 H 92" fill="#fddbc7" stroke="#fddbc7" stroke-width="0"/>
	<rect x="514" y="329" width="92" height="50" fill="none" rx="14" stroke="#d6604d" stroke-width="2"/>
	<line x1="514" y1="354" x2="606" y2="354" stroke="#d6604d" stroke-width="1"/>
	<text x="521" y="346.7" fill="#000000" font-family="Verdana" font-size="12">APPARTIENT</text>
</g>

<!-- Association INCLUT -->
<line x1="495" y1="429" x2="495" y2="513" stroke="#d6604d" stroke-width="2"/>
<text x="500.0" y="471" fill="#4d4d4d" font-family="Verdana" font-size="12">1,N</text>
<line x1="495" y1="614" x2="495" y2="513" stroke="#d6604d" stroke-width="2"/>
<text x="468.0" y="555" fill="#4d4d4d" font-family="Verdana" font-size="12">0,N</text>
<g id="association-INCLUT">
	<path d="M 514 488 a 14 14 90 0 1 14 14 V 513 h -66 V 502 a 14 14 90 0 1 14 -14" fill="#f4a582" stroke="#f4a582" stroke-width="0"/>
	<path d="M 528 513.0 v 11 a 14 14 90 0 1 -14 14 H 476 a 14 14 90 0 1 -14 -14 V 513.0 H 66" fill="#fddbc7" stroke="#fddbc7" stroke-width="0"/>
	<rect x="462" y="488" width="66" height="50" fill="none" rx="14" stroke="#d6604d" stroke-width="2"/>
	<line x1="462" y1="513" x2="528" y2="513" stroke="#d6604d" stroke-width="1"/>
	<text x="472" y="505.7" fill="#000000" font-family="Verdana" font-size="12">INCLUT</text>
	<text x="469" y="530.8" fill="#000000" font-family="Verdana" font-size="12">quantite</text>
</g>

<!-- Association FIGURE -->
<line x1="495" y1="51" x2="357" y2="51" stroke="#d6604d" stroke-width="2"/>
<text x="432" y="43.0" fill="#4d4d4d" font-family="Verdana" font-size="12">0,1</text>
<line x1="204" y1="51" x2="357" y2="51" stroke="#d6604d" stroke-width="2"/>
<text x="267" y="68.0" fill="#4d4d4d" font-family="Verdana" font-size="12">1,1</text>
<g id="association-FIGURE">
	<path d="M 374 26 a 14 14 90 0 1 14 14 V 51 h -62 V 40 a 14 14 90 0 1 14 -14" fill="#f4a582" stroke="#f4a582" stroke-width="0"/>
	<path d="M 388 51.0 v 11 a 14 14 90 0 1 -14 14 H 340 a 14 14 90 0 1 -14 -14 V 51.0 H 62" fill="#fddbc7" stroke="#fddbc7" stroke-width="0"/>
	<rect x="326" y="26" width="62" height="50" fill="none" rx="14" stroke="#d6604d" stroke-width="2"/>
	<line x1="326" y1="51" x2="388" y2="51" stroke="#d6604d" stroke-width="1"/>
	<text x="333" y="43.7" fill="#000000" font-family="Verdana" font-size="12">FIGURE</text>
</g>

<!-- Association EFFECTUE -->
<line x1="357" y1="261" x2="495" y2="261" stroke="#d6604d" stroke-width="2"/>
<text x="416" y="278.0" fill="#4d4d4d" font-family="Verdana" font-size="12">0,N</text>
<line x1="495" y1="429" x2="495" y2="261" stroke="#d6604d" stroke-width="2"/>
<text x="500.0" y="396" fill="#4d4d4d" font-family="Verdana" font-size="12">1,1</text>
<line x1="634" y1="261" x2="495" y2="261" stroke="#d6604d" stroke-width="2"/>
<text x="557" y="278.0" fill="#4d4d4d" font-family="Verdana" font-size="12">1,N</text>
<g id="association-EFFECTUE">
	<path d="M 519 236 a 14 14 90 0 1 14 14 V 261 h -76 V 250 a 14 14 90 0 1 14 -14" fill="#f4a582" stroke="#f4a582" stroke-width="0"/>
	<path d="M 533 261.0 v 11 a 14 14 90 0 1 -14 14 H 471 a 14 14 90 0 1 -14 -14 V 261.0 H 76" fill="#fddbc7" stroke="#fddbc7" stroke-width="0"/>
	<rect x="457" y="236" width="76" height="50" fill="none" rx="14" stroke="#d6604d" stroke-width="2"/>
	<line x1="457" y1="261" x2="533" y2="261" stroke="#d6604d" stroke-width="1"/>
	<text x="464" y="253.7" fill="#000000" font-family="Verdana" font-size="12">EFFECTUE</text>
</g>

<!-- Association POSSEDE -->
<line x1="204" y1="429" x2="357" y2="429" stroke="#d6604d" stroke-width="2"/>
<text x="243" y="446.0" fill="#4d4d4d" font-family="Verdana" font-size="12">1,1</text>
<line x1="357" y1="261" x2="357" y2="429" stroke="#d6604d" stroke-width="2"/>
<text x="362.0" y="346" fill="#4d4d4d" font-family="Verdana" font-size="12">1,1</text>
<g id="association-POSSEDE">
	<path d="M 380 404 a 14 14 90 0 1 14 14 V 429 h -74 V 418 a 14 14 90 0 1 14 -14" fill="#f4a582" stroke="#f4a582" stroke-width="0"/>
	<path d="M 394 429.0 v 11 a 14 14 90 0 1 -14 14 H 334 a 14 14 90 0 1 -14 -14 V 429.0 H 74" fill="#fddbc7" stroke="#fddbc7" stroke-width="0"/>
	<rect x="320" y="404" width="74" height="50" fill="none" rx="14" stroke="#d6604d" stroke-width="2"/>
	<line x1="320" y1="429" x2="394" y2="429" stroke="#d6604d" stroke-width="1"/>
	<text x="327" y="421.7" fill="#000000" font-family="Verdana" font-size="12">POSSEDE</text>
</g>

<!-- Association DONNE -->
<line x1="357" y1="261" x2="450" y2="143" stroke="#d6604d" stroke-width="2"/>
<text x="389.487627488" y="185" fill="#4d4d4d" font-family="Verdana" font-size="12">0,N</text>
<line x1="495" y1="51" x2="450" y2="143" stroke="#d6604d" stroke-width="2"/>
<text x="475.63049896" y="110" fill="#4d4d4d" font-family="Verdana" font-size="12">1,1</text>
<line x1="634" y1="51" x2="450" y2="143" stroke="#d6604d" stroke-width="2"/>
<text x="585.091247334" y="93" fill="#4d4d4d" font-family="Verdana" font-size="12">1,1</text>
<g id="association-DONNE">
	<path d="M 466 118 a 14 14 90 0 1 14 14 V 143 h -60 V 132 a 14 14 90 0 1 14 -14" fill="#f4a582" stroke="#f4a582" stroke-width="0"/>
	<path d="M 480 143.0 v 11 a 14 14 90 0 1 -14 14 H 434 a 14 14 90 0 1 -14 -14 V 143.0 H 60" fill="#fddbc7" stroke="#fddbc7" stroke-width="0"/>
	<rect x="420" y="118" width="60" height="50" fill="none" rx="14" stroke="#d6604d" stroke-width="2"/>
	<line x1="420" y1="143" x2="480" y2="143" stroke="#d6604d" stroke-width="1"/>
	<text x="427" y="135.7" fill="#000000" font-family="Verdana" font-size="12">DONNE</text>
</g>

<!-- Association FAIT_PARTIE -->
<line x1="634" y1="261" x2="763" y2="261" stroke="#d6604d" stroke-width="2"/>
<text x="689" y="278.0" fill="#4d4d4d" font-family="Verdana" font-size="12">0,N</text>
<line x1="876" y1="261" x2="763" y2="261" stroke="#d6604d" stroke-width="2"/>
<text x="815" y="278.0" fill="#4d4d4d" font-family="Verdana" font-size="12">1,N</text>
<g id="association-FAIT_PARTIE">
	<path d="M 796 236 a 14 14 90 0 1 14 14 V 261 h -94 V 250 a 14 14 90 0 1 14 -14" fill="#f4a582" stroke="#f4a582" stroke-width="0"/>
	<path d="M 810 261.0 v 11 a 14 14 90 0 1 -14 14 H 730 a 14 14 90 0 1 -14 -14 V 261.0 H 94" fill="#fddbc7" stroke="#fddbc7" stroke-width="0"/>
	<rect x="716" y="236" width="94" height="50" fill="none" rx="14" stroke="#d6604d" stroke-width="2"/>
	<line x1="716" y1="261" x2="810" y2="261" stroke="#d6604d" stroke-width="1"/>
	<text x="723" y="253.7" fill="#000000" font-family="Verdana" font-size="12">FAIT_PARTIE</text>
</g>

<!-- Association C_ESTREPRESENTE -->
<line x1="357" y1="261" x2="204" y2="261" stroke="#d6604d" stroke-width="2"/>
<text x="277" y="278.0" fill="#4d4d4d" font-family="Verdana" font-size="12">1,1</text>
<line x1="57" y1="261" x2="204" y2="261" stroke="#d6604d" stroke-width="2"/>
<text x="110" y="278.0" fill="#4d4d4d" font-family="Verdana" font-size="12">1,1</text>
<g id="association-C_ESTREPRESENTE">
	<path d="M 257 236 a 14 14 90 0 1 14 14 V 261 h -134 V 250 a 14 14 90 0 1 14 -14" fill="#f4a582" stroke="#f4a582" stroke-width="0"/>
	<path d="M 271 261.0 v 11 a 14 14 90 0 1 -14 14 H 151 a 14 14 90 0 1 -14 -14 V 261.0 H 134" fill="#fddbc7" stroke="#fddbc7" stroke-width="0"/>
	<rect x="137" y="236" width="134" height="50" fill="none" rx="14" stroke="#d6604d" stroke-width="2"/>
	<line x1="137" y1="261" x2="271" y2="261" stroke="#d6604d" stroke-width="1"/>
	<text x="144" y="253.7" fill="#000000" font-family="Verdana" font-size="12">C_ESTREPRESENTE</text>
</g>

<!-- Association F_ESTREPRESENTE -->
<line x1="634" y1="261" x2="634" y2="143" stroke="#d6604d" stroke-width="2"/>
<text x="639.0" y="228" fill="#4d4d4d" font-family="Verdana" font-size="12">1,1</text>
<line x1="634" y1="51" x2="634" y2="143" stroke="#d6604d" stroke-width="2"/>
<text x="639.0" y="93" fill="#4d4d4d" font-family="Verdana" font-size="12">1,1</text>
<g id="association-F_ESTREPRESENTE">
	<path d="M 686 118 a 14 14 90 0 1 14 14 V 143 h -132 V 132 a 14 14 90 0 1 14 -14" fill="#f4a582" stroke="#f4a582" stroke-width="0"/>
	<path d="M 700 143.0 v 11 a 14 14 90 0 1 -14 14 H 582 a 14 14 90 0 1 -14 -14 V 143.0 H 132" fill="#fddbc7" stroke="#fddbc7" stroke-width="0"/>
	<rect x="568" y="118" width="132" height="50" fill="none" rx="14" stroke="#d6604d" stroke-width="2"/>
	<line x1="568" y1="143" x2="700" y2="143" stroke="#d6604d" stroke-width="1"/>
	<text x="575" y="135.7" fill="#000000" font-family="Verdana" font-size="12">F_ESTREPRESENTE</text>
</g>

<!-- Entity PRODUIT -->
<g id="entity-PRODUIT">
	<g id="frame-PRODUIT">
		<rect x="452" y="563" width="86" height="25" fill="#bababa" stroke="#bababa" stroke-width="0"/>
		<rect x="452" y="588.0" width="86" height="77" fill="#e0e0e0" stroke="#e0e0e0" stroke-width="0"/>
		<rect x="452" y="563" width="86" height="102" fill="none" stroke="#878787" stroke-width="2"/>
		<line x1="452" y1="588" x2="538" y2="588" stroke="#878787" stroke-width="1"/>
	</g>
	<text x="466" y="580.7" fill="#000000" font-family="Verdana" font-size="12">PRODUIT</text>
	<text x="457" y="605.7" fill="#000000" font-family="Verdana" font-size="12">ID_produit</text>
	<line x1="457" y1="608" x2="523" y2="608" stroke="#000000" stroke-width="1"/>
	<text x="457" y="622.8" fill="#000000" font-family="Verdana" font-size="12">prix</text>
	<text x="457" y="639.8" fill="#000000" font-family="Verdana" font-size="12">categorie</text>
	<text x="457" y="656.8" fill="#000000" font-family="Verdana" font-size="12">date_recolte</text>
</g>

<!-- Entity RUCHE -->
<g id="entity-RUCHE">
	<g id="frame-RUCHE">
		<rect x="842" y="236" width="68" height="25" fill="#bababa" stroke="#bababa" stroke-width="0"/>
		<rect x="842" y="261.0" width="68" height="25" fill="#e0e0e0" stroke="#e0e0e0" stroke-width="0"/>
		<rect x="842" y="236" width="68" height="50" fill="none" stroke="#878787" stroke-width="2"/>
		<line x1="842" y1="261" x2="910" y2="261" stroke="#878787" stroke-width="1"/>
	</g>
	<text x="854" y="253.7" fill="#000000" font-family="Verdana" font-size="12">RUCHE</text>
	<text x="847" y="278.8" fill="#000000" font-family="Verdana" font-size="12">ID_ruche</text>
	<line x1="847" y1="281" x2="904" y2="281" stroke="#000000" stroke-width="1"/>
</g>

<!-- Entity FOURNISSEUR -->
<g id="entity-FOURNISSEUR">
	<g id="frame-FOURNISSEUR">
		<rect x="584" y="236" width="100" height="25" fill="#bababa" stroke="#bababa" stroke-width="0"/>
		<rect x="584" y="261.0" width="100" height="25" fill="#e0e0e0" stroke="#e0e0e0" stroke-width="0"/>
		<rect x="584" y="236" width="100" height="50" fill="none" stroke="#878787" stroke-width="2"/>
		<line x1="584" y1="261" x2="684" y2="261" stroke="#878787" stroke-width="1"/>
	</g>
	<text x="589" y="253.7" fill="#000000" font-family="Verdana" font-size="12">FOURNISSEUR</text>
	<text x="589" y="278.8" fill="#000000" font-family="Verdana" font-size="12">ID_fournisseur</text>
	<line x1="589" y1="281" x2="679" y2="281" stroke="#000000" stroke-width="1"/>
</g>

<!-- Entity COMMENTAIRE -->
<g id="entity-COMMENTAIRE">
	<g id="frame-COMMENTAIRE">
		<rect x="146" y="9" width="116" height="25" fill="#bababa" stroke="#bababa" stroke-width="0"/>
		<rect x="146" y="34.0" width="116" height="59" fill="#e0e0e0" stroke="#e0e0e0" stroke-width="0"/>
		<rect x="146" y="9" width="116" height="84" fill="none" stroke="#878787" stroke-width="2"/>
		<line x1="146" y1="34" x2="262" y2="34" stroke="#878787" stroke-width="1"/>
	</g>
	<text x="158" y="26.7" fill="#000000" font-family="Verdana" font-size="12">COMMENTAIRE</text>
	<text x="151" y="51.8" fill="#000000" font-family="Verdana" font-size="12">ID_commentaire</text>
	<line x1="151" y1="54" x2="253" y2="54" stroke="#000000" stroke-width="1"/>
	<text x="151" y="68.8" fill="#000000" font-family="Verdana" font-size="12">nbmax_caractere</text>
	<text x="151" y="85.8" fill="#000000" font-family="Verdana" font-size="12">contenu</text>
</g>

<!-- Entity REVIEW -->
<g id="entity-REVIEW">
	<g id="frame-REVIEW">
		<rect x="458" y="9" width="74" height="25" fill="#bababa" stroke="#bababa" stroke-width="0"/>
		<rect x="458" y="34.0" width="74" height="59" fill="#e0e0e0" stroke="#e0e0e0" stroke-width="0"/>
		<rect x="458" y="9" width="74" height="84" fill="none" stroke="#878787" stroke-width="2"/>
		<line x1="458" y1="34" x2="532" y2="34" stroke="#878787" stroke-width="1"/>
	</g>
	<text x="470" y="26.7" fill="#000000" font-family="Verdana" font-size="12">REVIEW</text>
	<text x="463" y="51.8" fill="#000000" font-family="Verdana" font-size="12">ID_review</text>
	<line x1="463" y1="54" x2="526" y2="54" stroke="#000000" stroke-width="1"/>
	<text x="463" y="68.8" fill="#000000" font-family="Verdana" font-size="12">date</text>
	<text x="463" y="85.8" fill="#000000" font-family="Verdana" font-size="12">note</text>
</g>

<!-- Entity FACTURE -->
<g id="entity-FACTURE">
	<g id="frame-FACTURE">
		<rect x="319" y="572" width="76" height="25" fill="#bababa" stroke="#bababa" stroke-width="0"/>
		<rect x="319" y="597.0" width="76" height="59" fill="#e0e0e0" stroke="#e0e0e0" stroke-width="0"/>
		<rect x="319" y="572" width="76" height="84" fill="none" stroke="#878787" stroke-width="2"/>
		<line x1="319" y1="597" x2="395" y2="597" stroke="#878787" stroke-width="1"/>
	</g>
	<text x="328" y="589.7" fill="#000000" font-family="Verdana" font-size="12">FACTURE</text>
	<text x="324" y="614.8" fill="#000000" font-family="Verdana" font-size="12">ID_facture</text>
	<line x1="324" y1="617" x2="389" y2="617" stroke="#000000" stroke-width="1"/>
	<text x="324" y="631.8" fill="#000000" font-family="Verdana" font-size="12">montant</text>
	<text x="324" y="648.8" fill="#000000" font-family="Verdana" font-size="12">date</text>
</g>

<!-- Entity WALLET -->
<g id="entity-WALLET">
	<g id="frame-WALLET">
		<rect x="170" y="395" width="68" height="25" fill="#bababa" stroke="#bababa" stroke-width="0"/>
		<rect x="170" y="420.0" width="68" height="43" fill="#e0e0e0" stroke="#e0e0e0" stroke-width="0"/>
		<rect x="170" y="395" width="68" height="68" fill="none" stroke="#878787" stroke-width="2"/>
		<line x1="170" y1="420" x2="238" y2="420" stroke="#878787" stroke-width="1"/>
	</g>
	<text x="179" y="412.7" fill="#000000" font-family="Verdana" font-size="12">WALLET</text>
	<text x="175" y="437.8" fill="#000000" font-family="Verdana" font-size="12">ID_wallet</text>
	<line x1="175" y1="440" x2="233" y2="440" stroke="#000000" stroke-width="1"/>
	<text x="175" y="454.8" fill="#000000" font-family="Verdana" font-size="12">solde</text>
</g>

<!-- Entity PAGE_CLIENT -->
<g id="entity-PAGE_CLIENT">
	<g id="frame-PAGE_CLIENT">
		<rect x="9" y="236" width="96" height="25" fill="#bababa" stroke="#bababa" stroke-width="0"/>
		<rect x="9" y="261.0" width="96" height="25" fill="#e0e0e0" stroke="#e0e0e0" stroke-width="0"/>
		<rect x="9" y="236" width="96" height="50" fill="none" stroke="#878787" stroke-width="2"/>
		<line x1="9" y1="261" x2="105" y2="261" stroke="#878787" stroke-width="1"/>
	</g>
	<text x="14" y="253.7" fill="#000000" font-family="Verdana" font-size="12">PAGE_CLIENT</text>
	<text x="14" y="278.8" fill="#000000" font-family="Verdana" font-size="12">ID_pageclient</text>
	<line x1="14" y1="281" x2="99" y2="281" stroke="#000000" stroke-width="1"/>
</g>

<!-- Entity CLIENT -->
<g id="entity-CLIENT">
	<g id="frame-CLIENT">
		<rect x="303" y="193" width="108" height="25" fill="#bababa" stroke="#bababa" stroke-width="0"/>
		<rect x="303" y="218.0" width="108" height="111" fill="#e0e0e0" stroke="#e0e0e0" stroke-width="0"/>
		<rect x="303" y="193" width="108" height="136" fill="none" stroke="#878787" stroke-width="2"/>
		<line x1="303" y1="218" x2="411" y2="218" stroke="#878787" stroke-width="1"/>
	</g>
	<text x="334" y="210.7" fill="#000000" font-family="Verdana" font-size="12">CLIENT</text>
	<text x="308" y="235.7" fill="#000000" font-family="Verdana" font-size="12">ID_client</text>
	<line x1="308" y1="238" x2="363" y2="238" stroke="#000000" stroke-width="1"/>
	<text x="308" y="252.7" fill="#000000" font-family="Verdana" font-size="12">email</text>
	<text x="308" y="269.8" fill="#000000" font-family="Verdana" font-size="12">age</text>
	<text x="308" y="286.8" fill="#000000" font-family="Verdana" font-size="12">numero_tel</text>
	<text x="308" y="303.8" fill="#000000" font-family="Verdana" font-size="12">date_inscription</text>
	<text x="308" y="320.8" fill="#000000" font-family="Verdana" font-size="12">adresse</text>
</g>

<!-- Entity COMMANDE -->
<g id="entity-COMMANDE">
	<g id="frame-COMMANDE">
		<rect x="445" y="404" width="100" height="25" fill="#bababa" stroke="#bababa" stroke-width="0"/>
		<rect x="445" y="429.0" width="100" height="25" fill="#e0e0e0" stroke="#e0e0e0" stroke-width="0"/>
		<rect x="445" y="404" width="100" height="50" fill="none" stroke="#878787" stroke-width="2"/>
		<line x1="445" y1="429" x2="545" y2="429" stroke="#878787" stroke-width="1"/>
	</g>
	<text x="458" y="421.7" fill="#000000" font-family="Verdana" font-size="12">COMMANDE</text>
	<text x="450" y="446.8" fill="#000000" font-family="Verdana" font-size="12">ID_commande</text>
	<line x1="450" y1="449" x2="539" y2="449" stroke="#000000" stroke-width="1"/>
</g>

<!-- Entity PAGE_FOURNISSEUR -->
<g id="entity-PAGE_FOURNISSEUR">
	<g id="frame-PAGE_FOURNISSEUR">
		<rect x="564" y="26" width="140" height="25" fill="#bababa" stroke="#bababa" stroke-width="0"/>
		<rect x="564" y="51.0" width="140" height="25" fill="#e0e0e0" stroke="#e0e0e0" stroke-width="0"/>
		<rect x="564" y="26" width="140" height="50" fill="none" stroke="#878787" stroke-width="2"/>
		<line x1="564" y1="51" x2="704" y2="51" stroke="#878787" stroke-width="1"/>
	</g>
	<text x="569" y="43.7" fill="#000000" font-family="Verdana" font-size="12">PAGE_FOURNISSEUR</text>
	<text x="569" y="68.8" fill="#000000" font-family="Verdana" font-size="12">ID_pagefournissseur</text>
	<line x1="569" y1="71" x2="695" y2="71" stroke="#000000" stroke-width="1"/>
</g>

<!-- Entity STOCK -->
<g id="entity-STOCK">
	<g id="frame-STOCK">
		<rect x="601" y="395" width="66" height="25" fill="#bababa" stroke="#bababa" stroke-width="0"/>
		<rect x="601" y="420.0" width="66" height="43" fill="#e0e0e0" stroke="#e0e0e0" stroke-width="0"/>
		<rect x="601" y="395" width="66" height="68" fill="none" stroke="#878787" stroke-width="2"/>
		<line x1="601" y1="420" x2="667" y2="420" stroke="#878787" stroke-width="1"/>
	</g>
	<text x="612" y="412.7" fill="#000000" font-family="Verdana" font-size="12">STOCK</text>
	<text x="606" y="437.8" fill="#000000" font-family="Verdana" font-size="12">ID_stock</text>
	<line x1="606" y1="440" x2="661" y2="440" stroke="#000000" stroke-width="1"/>
</g>
</svg>